<svg id="visual" viewBox="0 0 960 540" width="960" height="540" xmlns="http://www.w3.org/2000/svg" xmlns:xlink="http://www.w3.org/1999/xlink" version="1.1"><path d="M0 66L14.5 61.5C29 57 58 48 87.2 50.7C116.3 53.3 145.7 67.7 174.8 69.5C204 71.3 233 60.7 262 59.8C291 59 320 68 349 75.2C378 82.3 407 87.7 436.2 93C465.3 98.3 494.7 103.7 523.8 96.5C553 89.3 582 69.7 611 61.5C640 53.3 669 56.7 698 62C727 67.3 756 74.7 785.2 75.7C814.3 76.7 843.7 71.3 872.8 73.2C902 75 931 84 945.5 88.5L960 93L960 0L945.5 0C931 0 902 0 872.8 0C843.7 0 814.3 0 785.2 0C756 0 727 0 698 0C669 0 640 0 611 0C582 0 553 0 523.8 0C494.7 0 465.3 0 436.2 0C407 0 378 0 349 0C320 0 291 0 262 0C233 0 204 0 174.8 0C145.7 0 116.3 0 87.2 0C58 0 29 0 14.5 0L0 0Z" fill="#639ce1"></path><path d="M0 163L14.5 165.7C29 168.3 58 173.7 87.2 181.8C116.3 190 145.7 201 174.8 192C204 183 233 154 262 143.2C291 132.3 320 139.7 349 143.3C378 147 407 147 436.2 158.7C465.3 170.3 494.7 193.7 523.8 202.7C553 211.7 582 206.3 611 203.7C640 201 669 201 698 200C727 199 756 197 785.2 192.5C814.3 188 843.7 181 872.8 177.5C902 174 931 174 945.5 174L960 174L960 91L945.5 86.5C931 82 902 73 872.8 71.2C843.7 69.3 814.3 74.7 785.2 73.7C756 72.7 727 65.3 698 60C669 54.7 640 51.3 611 59.5C582 67.7 553 87.3 523.8 94.5C494.7 101.7 465.3 96.3 436.2 91C407 85.7 378 80.3 349 73.2C320 66 291 57 262 57.8C233 58.7 204 69.3 174.8 67.5C145.7 65.7 116.3 51.3 87.2 48.7C58 46 29 55 14.5 59.5L0 64Z" fill="#4489da"></path><path d="M0 357L14.5 348C29 339 58 321 87.2 310.3C116.3 299.7 145.7 296.3 174.8 313.5C204 330.7 233 368.3 262 371C291 373.7 320 341.3 349 319.7C378 298 407 287 436.2 298.7C465.3 310.3 494.7 344.7 523.8 368.2C553 391.7 582 404.3 611 402.5C640 400.7 669 384.3 698 373.5C727 362.7 756 357.3 785.2 352C814.3 346.7 843.7 341.3 872.8 346.7C902 352 931 368 945.5 376L960 384L960 172L945.5 172C931 172 902 172 872.8 175.5C843.7 179 814.3 186 785.2 190.5C756 195 727 197 698 198C669 199 640 199 611 201.7C582 204.3 553 209.7 523.8 200.7C494.7 191.7 465.3 168.3 436.2 156.7C407 145 378 145 349 141.3C320 137.7 291 130.3 262 141.2C233 152 204 181 174.8 190C145.7 199 116.3 188 87.2 179.8C58 171.7 29 166.3 14.5 163.7L0 161Z" fill="#1976d2"></path><path d="M0 455L14.5 459.5C29 464 58 473 87.2 480.2C116.3 487.3 145.7 492.7 174.8 497.2C204 501.7 233 505.3 262 500.8C291 496.3 320 483.7 349 476.3C378 469 407 467 436.2 468.8C465.3 470.7 494.7 476.3 523.8 480.8C553 485.3 582 488.7 611 486.8C640 485 669 478 698 470.8C727 463.7 756 456.3 785.2 461.7C814.3 467 843.7 485 872.8 493.2C902 501.3 931 499.7 945.5 498.8L960 498L960 382L945.5 374C931 366 902 350 872.8 344.7C843.7 339.3 814.3 344.7 785.2 350C756 355.3 727 360.7 698 371.5C669 382.3 640 398.7 611 400.5C582 402.3 553 389.7 523.8 366.2C494.7 342.7 465.3 308.3 436.2 296.7C407 285 378 296 349 317.7C320 339.3 291 371.7 262 369C233 366.3 204 328.7 174.8 311.5C145.7 294.3 116.3 297.7 87.2 308.3C58 319 29 337 14.5 346L0 355Z" fill="#1166b6"></path><path d="M0 541L14.5 541C29 541 58 541 87.2 541C116.3 541 145.7 541 174.8 541C204 541 233 541 262 541C291 541 320 541 349 541C378 541 407 541 436.2 541C465.3 541 494.7 541 523.8 541C553 541 582 541 611 541C640 541 669 541 698 541C727 541 756 541 785.2 541C814.3 541 843.7 541 872.8 541C902 541 931 541 945.5 541L960 541L960 496L945.5 496.8C931 497.7 902 499.3 872.8 491.2C843.7 483 814.3 465 785.2 459.7C756 454.3 727 461.7 698 468.8C669 476 640 483 611 484.8C582 486.7 553 483.3 523.8 478.8C494.7 474.3 465.3 468.7 436.2 466.8C407 465 378 467 349 474.3C320 481.7 291 494.3 262 498.8C233 503.3 204 499.7 174.8 495.2C145.7 490.7 116.3 485.3 87.2 478.2C58 471 29 462 14.5 457.5L0 453Z" fill="#0c579a"></path></svg>