<svg id="visual" viewBox="0 0 960 540" width="960" height="540" xmlns="http://www.w3.org/2000/svg" xmlns:xlink="http://www.w3.org/1999/xlink" version="1.1"><rect x="0" y="0" width="960" height="540" fill="#fff"></rect><defs><linearGradient id="grad1_0" x1="43.8%" y1="0%" x2="100%" y2="100%"><stop offset="14.444444444444446%" stop-color="#ffffff" stop-opacity="1"></stop><stop offset="85.55555555555554%" stop-color="#ffffff" stop-opacity="1"></stop></linearGradient></defs><defs><linearGradient id="grad2_0" x1="0%" y1="0%" x2="56.3%" y2="100%"><stop offset="14.444444444444446%" stop-color="#ffffff" stop-opacity="1"></stop><stop offset="85.55555555555554%" stop-color="#ffffff" stop-opacity="1"></stop></linearGradient></defs><g transform="translate(960, 0)"><path d="M0 189C-18.7 172.6 -37.4 156.2 -62 149.7C-86.6 143.2 -117.1 146.6 -133.6 133.6C-150.2 120.7 -152.9 91.2 -159.8 66.2C-166.7 41.2 -177.9 20.6 -189 0L0 0Z" fill="#1976D2"></path></g><g transform="translate(0, 540)"><path d="M0 -189C27.7 -189.2 55.4 -189.4 72.3 -174.6C89.3 -159.8 95.4 -130 111.7 -111.7C128 -93.5 154.5 -86.7 169.1 -70C183.6 -53.3 186.3 -26.7 189 0L0 0Z" fill="#1976D2"></path></g></svg>